<svg xmlns="http://www.w3.org/2000/svg" width="256" height="256" viewBox="0 0 100 100"><rect width="100" height="100" rx="50" fill="#830d0b"></rect><path d="M7.43 63.09Q7.43 63.63 7.00 64.01Q6.58 64.38 5.93 64.38Q5.28 64.38 4.86 64.13L4.86 64.13L4.86 64.26Q4.86 65.33 6.11 66.12L6.11 66.12Q7.35 66.87 9.16 66.87Q10.96 66.87 12.49 66.25Q14.03 65.63 15.37 64.54Q16.72 63.46 17.92 61.99Q19.13 60.52 20.25 58.85Q21.37 57.18 22.44 55.37L22.44 55.37L25.16 50.98Q19.11 50.78 15.37 48.59L15.37 48.59Q11.46 46.30 11.71 42.82L11.71 42.82Q11.83 40.60 13.33 38.72Q14.82 36.84 17.21 35.44L17.21 35.44Q22.32 32.53 29.29 32.53L29.29 32.53Q32.15 32.53 33.52 33.20L33.52 33.20Q33.90 33.40 33.90 33.54Q33.90 33.68 33.66 33.68Q33.42 33.68 33.26 33.64Q33.10 33.60 32.60 33.50L32.60 33.50Q30.88 33.10 29.12 33.10Q27.35 33.10 25.44 33.44Q23.54 33.78 21.80 34.40Q20.05 35.02 18.55 35.92Q17.04 36.81 15.92 37.93L15.92 37.93Q13.53 40.38 13.38 43.29L13.38 43.29Q13.20 45.83 16.22 47.85L16.22 47.85Q19.68 50.19 25.56 50.36L25.56 50.36Q34.20 36.71 41.37 33.55L41.37 33.55Q43.71 32.53 45.58 32.53L45.58 32.53Q49.26 32.53 49.11 35.62L49.11 35.62Q48.96 38.26 46.25 41.52L46.25 41.52Q41.74 46.92 34.50 49.54L34.50 49.54Q31.98 50.46 29.29 50.81L29.29 50.81L26.43 55.07Q19.73 64.78 13.53 66.85L13.53 66.85Q11.66 67.47 9.94 67.47Q8.22 67.47 7.17 67.21Q6.11 66.95 5.36 66.47L5.36 66.47Q3.87 65.50 3.87 64.06L3.87 64.06Q3.87 62.51 5.41 62.09L5.41 62.09Q5.81 61.99 6.21 61.99Q6.60 61.99 7.02 62.26Q7.43 62.54 7.43 63.09ZM29.76 50.11L29.76 50.11Q36.74 48.94 42.26 44.09L42.26 44.09Q45.58 41.17 47.00 38.23L47.00 38.23Q48.57 34.97 47.25 33.65L47.25 33.65Q46.75 33.15 45.56 33.18Q44.38 33.20 42.76 34.15Q41.14 35.10 39.38 36.89L39.38 36.89Q36.01 40.25 31.53 47.37L31.53 47.37Q30.09 49.59 29.76 50.11ZM39.60 67.47Q38.65 67.47 38.16 66.96Q37.66 66.45 37.66 65.78Q37.66 65.10 37.89 64.62Q38.13 64.13 38.53 63.73L38.53 63.73Q39.43 62.89 40.45 62.89L40.45 62.89Q42.41 62.89 42.41 64.73L42.41 64.73Q42.41 65.78 41.72 66.40L41.72 66.40Q40.55 67.47 39.60 67.47ZM54.44 63.09Q54.44 63.63 54.02 64.01Q53.60 64.38 52.95 64.38Q52.30 64.38 51.88 64.13L51.88 64.13L51.88 64.26Q51.88 65.33 53.12 66.12L53.12 66.12Q54.37 66.87 56.17 66.87Q57.98 66.87 59.51 66.25Q61.04 65.63 62.39 64.54Q63.73 63.46 64.94 61.99Q66.15 60.52 67.27 58.85Q68.39 57.18 69.46 55.37L69.46 55.37L72.17 50.98Q66.12 50.78 62.39 48.59L62.39 48.59Q58.48 46.30 58.73 42.82L58.73 42.82Q58.85 40.60 60.34 38.72Q61.84 36.84 64.23 35.44L64.23 35.44Q69.33 32.53 76.31 32.53L76.31 32.53Q79.17 32.53 80.54 33.20L80.54 33.20Q80.91 33.40 80.91 33.54Q80.91 33.68 80.68 33.68Q80.44 33.68 80.28 33.64Q80.12 33.60 79.62 33.50L79.62 33.50Q77.90 33.10 76.13 33.10Q74.36 33.10 72.46 33.44Q70.55 33.78 68.81 34.40Q67.07 35.02 65.56 35.92Q64.05 36.81 62.93 37.93L62.93 37.93Q60.54 40.38 60.39 43.29L60.39 43.29Q60.22 45.83 63.23 47.85L63.23 47.85Q66.69 50.19 72.57 50.36L72.57 50.36Q81.21 36.71 88.38 33.55L88.38 33.55Q90.72 32.53 92.59 32.53L92.59 32.53Q96.28 32.53 96.13 35.62L96.13 35.62Q95.98 38.26 93.26 41.52L93.26 41.52Q88.76 46.92 81.51 49.54L81.51 49.54Q79.00 50.46 76.31 50.81L76.31 50.81L73.44 55.07Q66.74 64.78 60.54 66.85L60.54 66.85Q58.68 67.47 56.96 67.47Q55.24 67.47 54.18 67.21Q53.12 66.95 52.38 66.47L52.38 66.47Q50.88 65.50 50.88 64.06L50.88 64.06Q50.88 62.51 52.43 62.09L52.43 62.09Q52.82 61.99 53.22 61.99Q53.62 61.99 54.03 62.26Q54.44 62.54 54.44 63.09ZM76.78 50.11L76.78 50.11Q83.75 48.94 89.28 44.09L89.28 44.09Q92.59 41.17 94.01 38.23L94.01 38.23Q95.58 34.97 94.26 33.65L94.26 33.65Q93.76 33.15 92.58 33.18Q91.40 33.20 89.78 34.15Q88.16 35.10 86.39 36.89L86.39 36.89Q83.03 40.25 78.55 47.37L78.55 47.37Q77.10 49.59 76.78 50.11Z" fill="#fff"></path></svg>